<?xml version="1.0" encoding="UTF-8"?><svg id="Cellular" xmlns="http://www.w3.org/2000/svg" viewBox="0 0 64 64"><path d="M.2,34.42v-7.99c.79-4.13,3.51-6,7.44-6.6,1.95-.3,3.65-1.43,5.72-1.64,4.72-.49,7.45,2.29,9.41,5.8.87,1.55,1.73,2.67,3.14,3.65,3.2,2.24,5.01,5.43,4.4,9.36-.57,3.65-2.48,6.63-6.08,8.18-2.34,1-4.87,1.15-7.05.22-2.32-.98-3.96-.49-5.91.69-3.45,2.1-8.56,1.15-11.07-1.84v-4.3c1.34-1.03,1.96.09,2.77.88,2.83,2.73,6.98,1.82,8.45-1.83.41-1.03.57-2.23,1.97-2.44,1.52-.23,2.03.9,2.7,1.93,1.36,2.11,3.27,3.2,5.76,2.36,2.08-.7,3.31-2.24,3.5-4.53.23-2.7-1.14-4.34-3.49-5.19-1.7-.62-2.54-1.62-2.85-3.45-.71-4.11-3.97-5.77-7.66-3.93-.9.45-1.71.72-2.7.83-3.21.36-4.99,2.58-4.89,5.89.09,2.99-1.16,4.38-3.56,3.96Z" style="fill:#343434; stroke-width:0px;"/><path d="M.2,34.42c3.42-4.16,2.89-11.62,10.98-11.98,4.27-.19,7.32-.09,9.01,4.43.51,1.36,1.77,2.68,3.02,3.47,2.49,1.56,3.42,3.67,3.16,6.46-.23,2.48-1.55,4.14-3.91,4.98-2.63.95-4.91.3-6.57-1.81-1.68-2.14-2.35-2.11-3.99.32-3.8,5.62-7.88,3.11-11.7-.34v-5.53Z" style="fill:#1d1d1d; stroke-width:0px;"/><path d="M63.63,30.11v1.84c-2.21,3.89-2.16,7.78,0,11.68v5.53c-.72,4.64-3.1,8.05-6.96,10.74-1.61,1.13-2.42,3.42-4.63,4h-4.88c-.92-1.16-.19-1.79.6-2.68,1.24-1.4,2.29-3.04,2.19-5.04-.1-2.08,1.38-1.98,2.69-2.32,3.48-.9,7.32-5.96,4.48-10.57-1.71-2.77-4.43-3.79-7.25-3.48-2.79.31-4.97,2.36-5.48,5.28-.43,2.43-1.49,3.51-3.8,4.5-5.45,2.34-6.71,7.66-2.67,11.37.87.8,1.53,1.69.71,2.92h-2.44c-5.35-4.61-4.74-13.06,1.3-16.48,1.92-1.08,3.03-2.67,3.92-4.5,3.18-6.53,7.02-7.36,13.46-5.81,2.2.53,3.14-.19,3.79-2.21.78-2.43,1.94-4.67,4.98-4.8Z" style="fill:#525252; stroke-width:0px;"/><path d="M47.16,0h1.83c.63.86.16,1.68-.06,2.54-.57,2.3-.22,4.33,1.89,5.72,1.84,1.22,3.87,1.75,5.72.3,1.86-1.46,3.2-3.32,2.12-6C58.34,1.77,58.12.83,58.75,0h2.44c1.12.96,1.38,2.2,1.46,3.64.06,1.06-.31,2.4.98,3.12v2.46c-.8.89-1.45,1.88-2.4,2.68-2.61,2.22-2.6,4.59.02,6.91.92.82,1.58,1.81,2.38,2.7v1.84c-4.36.26-7.87,2.68-11.73,4.32-3.84,1.63-8.03-.69-10.03-4.31-1.8-3.26-1.2-7.43,1.79-10.31,1.98-1.9,2.72-3.71,1.73-6.49C44.2,3.22,44.87,1.56,47.16,0Z" style="fill:#303030; stroke-width:0px;"/><path d="M38.62,63.91c-6.24-7.02-4.77-11.75,3.22-16.68,3.46-2.13,3.54-9.26,10.21-8.22,3.69.58,6.2,2.42,7.01,6.19.8,3.71-1.01,7.15-3.81,8.34-4.92,2.1-5.03,7.26-8.09,10.37h-8.54Z" style="fill:#303030; stroke-width:0px;"/><path d="M.2,20.89v-1.84c.42-.51.54-1.18.86-1.74.22-.25.47-.47.75-.65,7.41-4.8,15.14-4.31,22.04.28,3.94,2.62,7.84,6.39,9.63,11.11,2.02,5.33,1.78,10.99-.23,16.44-.13.36-.33.74-.71.94-3.9,3.74-8.33,6.04-13.93,5.3-1.36-.18-2.46.89-3.78.99-.38.09-.8.1-1.18.26-1.04.44-2.84.24-2.65,1.91.18,1.58,1.69,2.17,3.19,2.27,2.21.15,4.44.04,6.65.43,3.61.62,5.95,3.34,6.2,7.33h-1.22c-1.23-.75-2.52-1.36-3.63-2.35-3.28-2.94-7.19-2.76-11.03-1.67-2.88.81-3.7.81-4.69-1.96-.83-2.31-1.99-4.46-2.87-6.74-.07-1.7.87-2.29,2.43-2.37,2.54-.13,4.99-.7,7.27-1.86,1.19-.61,2.3-.38,3.5-.06,4.08,1.1,7.78.4,10.93-2.57,4.88-3.43,4.48-8.24,3.16-13.11-.56-2.08-2.62-3.26-4.19-4.64-1.1-.96-2.14-1.92-2.57-3.29-1.73-5.56-9.21-7.75-14.33-5.81-2.84,1.08-6.03,1.36-8.46,3.49-.32.28-.77.11-1.14-.09Z" style="fill:silver; stroke-width:0px;"/><path d="M.2,44.25c7.96,3.97,15.84-1.07,23.88-.43,3.37.27,5.91-4.59,5.12-8.23-1.55-7.2-6.9-13.05-12.83-15.62-5.4-2.34-12.36.18-16.17,6.46v-3.69c.83-1.62,2.05-2.71,3.79-3.36,2.32-.86,4.64-1.74,7.03-2.3,5.91-1.38,10.66.89,13.36,6.26.61,1.21,1.25,2.22,2.39,3.04,6.12,4.4,6.01,10.84,4.1,14.54-3.1,6.02-8.7,8.04-15.06,5.83-.29-.13-.59-.22-.91-.25-.8.03-1.45.48-2.12.86-.26.16-.53.31-.81.44-3.59,1.24-7.18,1.89-10.71-.21-.23-.21-.44-.44-.61-.7-.12-.29-.28-.56-.46-.81v-1.84Z" style="fill:#676767; stroke-width:0px;"/><path d="M28.86,63.91h-.61c-1.62-1.1-2.43-2.98-3.92-4.2-3.32-2.71-7.24-4-11.31-3.04-3.28.78-4.07-.73-4.67-3.21-.07-.3-.12-.59-.12-.9.15-.74.74-.91,1.35-1.07.42-.17.87-.25,1.29-.42.43-.13.85-.34,1.3-.43.7-.36,1.42-.67,2.2-.82,1.55-.36,2.96.45,4.45.55,2.98.21,5.81-.34,8.5-1.66,1.07-.52,2.25-1.31,2.95.51.06.33.08.67.06,1-.04.5-.2.98-.33,1.47-.94,3.06-.91,6.14-.1,9.2.35,1.31.37,2.37-1.03,3.01Z" style="fill:#f4f4f4; stroke-width:0px;"/><path d="M.2,14.13v-2.46c.73-1.1.71-2.57,1.73-3.52,2.1-3.53,2.78-3.75,5.96-1.12,5.95,4.93,13.24,1.37,15.23-4.15.69-1.92,1.78-3.27,4.08-2.03.25.13.48.29.69.48,1.16,1.71,2.45,3.28,4.3,4.29.24.13.49.26.74.37,2.91,1.36,5.74,1.1,8.51-.44,1.3-.55,2.44-.48,2.89,1.08.41,1.43,2.02,2.97.09,4.36-1.91,1.36-2.84,3.36-3.88,5.31-2.13,3.83-.24,6.9,2.01,9.75,2.58,3.26,6.12,3.69,9.92,2.77,1.09-.26,2.09-.77,2.96-1.51.23-.18.45-.35.68-.52.23-.17.45-.36.67-.55.12-.09.23-.18.34-.28.25-.16.52-.28.81-.37.3-.05.6-.07.91-.08.79.02,1.6,0,2.03.87.23,1.28-.91,1.65-1.54,2.35-3.78,4.19-8.26,5.71-13.66,3.63-.59-.11-1.21-.16-1.75-.45-.25-.12-.5-.23-.75-.35-.23-.13-.45-.27-.66-.43-.1-.07-.21-.15-.31-.22-.3-.22-.59-.44-.88-.67-.27-.23-.54-.47-.8-.71-.26-.24-.5-.49-.74-.75-.24-.26-.48-.52-.71-.79-.23-.28-.45-.57-.67-.85-.15-.2-.3-.4-.44-.6-.14-.21-.28-.43-.41-.65-.37-.57-.49-1.24-.69-1.87-.12-.41-.25-.81-.32-1.23-.02-.29-.04-.58-.04-.88-.01-1.63,0-3.27,0-4.9,0-.43,0-.86.02-1.28.02-.41.11-.81.28-1.18.1-.23.2-.47.3-.7.13-.33.29-.65.44-.97.08-.19.16-.39.24-.59.06-.18.11-.36.15-.55,0-.17-.01-.35-.05-.52-.1-.15-.19-.3-.33-.44-.03,0-.26-.2-.29-.19-3.2-.52-6.4-.84-9.15-2.91-1.25-.94-2.54-.06-3.5.95-4.87,5.19-10.58,5.87-16.91,3.22-1.74-.73-3.11-.18-4.42,1.03-.84.77-1.57,2.04-3.07,1.23Z" style="fill:#9a9a9a; stroke-width:0px;"/><path d="M47.16,0c-1.62,2.94-1.72,5.89.39,8.58,1.44,1.84,1.08,2.65-.98,3.54-3.21,1.39-4.75,4.15-4.57,7.59.17,3.31,1.87,5.83,5.12,6.88,3.27,1.05,6.57.59,8.45-2.35,2.57-4.03,5.41-.49,8.05-.88v1.23c-.36.2.15.16-.22.19-4.11.28-7.34,2.88-11.02,4.16-6.63,2.3-13.2-3.28-12.81-10.41.16-2.87,1.86-5.06,3.93-6.94,1.62-1.48,1.75-4.28.25-5.8-1.05-1.06-1.99-.21-2.94.23-4.37,2.07-9.65.66-12.06-3.21C28.21,1.92,27.59,1.09,28.25,0h1.83C34.83,4.25,36.41,5.97,44.11,0h3.05Z" style="fill:#4c4c4c; stroke-width:0px;"/><path d="M28.25,0c2.52,4.87,6.17,7.04,11.76,5.44,1.53-.44,3.51-3.32,4.36-1.2.92,2.31,3.25,5.37-.6,8.33-4.93,3.79-4.24,9.03-.36,13.16,3.87,4.13,8.81,3.93,12.64-.15,2.62-2.79,5.11-.54,7.59-1v1.23c-.77.85-1.63,1.05-2.7.56-.9-.42-1.88-.86-2.78.07h0c-.21.2-.41.4-.61.61h0c-.21.2-.41.41-.61.61h0c-4.56,3.4-9.26,3.78-13.36.84-4-2.87-6.03-7.7-4.34-12.52,1.57-2.53,3.28-4.99,4.6-7.65.3-.6-.56-2.21-2.15-1.58-3.25,1.35-6.5,1.36-9.75,0h0c-2.06-1.2-3.69-2.84-4.88-4.91h0c-.45-.61-.46-1.22-.01-1.83h1.22Z" style="fill:#646464; stroke-width:0px;"/><path d="M14.83,45.5c5.99,2.07,11.44,1.68,14.82-4.44,3.4-6.16-.73-9.96-3.95-15.06C17.93,13.68,9.53,16.95.2,22.74v-1.84c6.03-3.95,13.12-7.89,19.35-3.26,6.25,4.65,13.18,10.2,13.05,19.83-.04,3.22-1.88,5.25-3.75,7.4-3.14,2.68-6.81,3.49-10.81,3.06-1.52-.16-3.06-.36-3.2-2.41Z" style="fill:#8c8c8c; stroke-width:0px;"/><path d="M44.77,31.33c5.22.94,10.27,1.26,13.98-3.65.65-.47,1.35-.55,1.89.06.49.55.14,1.14-.22,1.66-.12.17-.31.3-.38.48-1.75,4.6-4.6,6.5-9.86,5.77-4.04-.56-7.26,2.25-9.23,5.93-1.03,1.93-2.32,3.47-4.1,4.8-5.32,3.98-7.46,8.59-4.25,16.09.22.51.2.98-.08,1.45h-1.22c-3.81-3.58-3.01-7.94-1.99-12.29.27-1.15,1.04-2.19.77-3.46.32-1.85,2.04-2.53,3.27-3.37,3.72-2.53,5.21-6.91,8.44-9.82.81-.73.65-1.85.16-2.83-.35-.69-1.02-1.35-.23-2.17.42-.17.83-.21,1.19.14h0c.2.21.41.42.63.62v-.02c.31.4.9.27,1.25.62Z" style="fill:#bfbfbf; stroke-width:0px;"/><path d="M31.29,44.83c3.23-6.14,3.58-11.97-.59-18.08C23.2,15.74,14.05,11.24,1.4,17.81c-.38-2.3,2.11-1.82,2.7-2.91-1.2.45-2.16,1.96-3.9,1.69v-1.23c1.11-1.85,3-3,4.15-4.83.79-1.25,1.67-.38,2.56.14,6.77,3.95,13.32,2.67,18.1-3.71,1.08-1.44,1.95-1.71,3.1-.52.97,1,2.41,1.49,3,2.87-.18,1.42-1.48,1.47-2.31,1.42-2.12-.14-3.36,1.03-4.55,2.46-.98,1.69.42,2.56,1.19,3.7,3.05,4.55,7.27,8.14,10.24,12.75.21,4.16.66,8.33-.55,12.43-.18.27-.37.55-.55.82-.92.96-1.25,2.95-3.31,1.94Z" style="fill:#cdcdcd; stroke-width:0px;"/><path d="M63.63,30.11c-3.14,6.74-7.09,9.41-15.58,8.18-6.63-.96-14.9,18.77-11.87,25.62h-1.22c-3.45-1.96-4.98-6.41-3.51-10.89.45-1.37.82-2.86,1.85-3.98,1.57-1.27,3.03-2.71,4.82-3.68,1.07-.58,1.55-1.54,2.03-2.56,2.88-6.08,7.31-8.61,13.7-7.25,2.45.52,3.35-.32,4.06-2.28.84-2.32,2.56-3.87,4.58-5.12.38-.23.78-.1,1.14.12v1.84Z" style="fill:#676767; stroke-width:0px;"/><path d="M2.61,9.21c-.81.82-1.61,1.65-2.42,2.47,0-1.02,0-2.05,0-3.07,1.05-1.83.9-3.79.79-5.8C.94,1.89.49.81,1.42,0h4.27c.57.65,1.26,1.15,1.51,2.1.86,3.24,3.38,4.8,6.36,5.08,3.33.31,5.72-1.64,7.27-4.57C21.34,1.64,21.9.7,22.76,0h1.83c.86,5.96-5.64,11.77-11.98,10.69-2.45-.42-4.65-1.46-6.42-3.21-2.3-2.27-2.25-2.33-3.22.92-.09.29-.12.59-.36.81Z" style="fill:#626262; stroke-width:0px;"/><path d="M34.35,49.15c-3.4,5.08-3.62,10.02.62,14.77h-2.44c-3.69-6.27-3.32-12.14,2.13-17.14,5.99-5.49,9.49-15.07,20.64-12.55,1.33.3,3.94-3.4,3.46-6.55.61-.4,1.23-.79,1.84-1.19,2.04-.12,2.86.41,1.28,2.33-1.73,2.11-3.83,3.93-4.39,6.86-.33,1.73-1.69,1.03-2.7.66-3.48-1.27-6.68-.78-9.83,1.19-1.64,1.02-2.94,2.27-3.57,4.02-.95,2.65-2.56,4.57-5.09,5.72-.88.4-1.44,1.12-1.95,1.88Z" style="fill:#9e9e9e; stroke-width:0px;"/><path d="M52.04,63.91c3.86-4.92,7.73-9.83,11.59-14.75v10.45c-1.99,1.49-3.87,3.15-6.1,4.3h-5.49Z" style="fill:#e7e7e7; stroke-width:0px;"/><path d="M50.82,0h6.1c2.69,2.73,2.82,5.03.42,7.58-2.17,2.31-4.9,2.39-7.19.22C48,5.77,48.28,2.51,50.82,0Z" style="fill:#0f0f0f; stroke-width:0px;"/><path d="M63.63,21.51c-3.38-.82-6.18-2.39-6.17-6.34,0-3.92,3.02-5.11,6.17-5.95v12.29Z" style="fill:#141414; stroke-width:0px;"/><path d="M22.76,0c-.85,5.11-3.78,8.39-8.95,8.26C8.95,8.14,6.09,5.05,5.69,0h2.44c5.1,6.85,6.81,6.88,11.99.22.25-.32-.05.1.21-.22h2.44Z" style="fill:#313131; stroke-width:0px;"/><path d="M30.73,9.75c-2.06-3-4.02-4.29-7-.7-3.34,4.01-8.22,5.8-12.85,3.64-4.86-2.27-7.78-.83-10.69,2.68v-1.23c2.97-3.87,5.63-5.25,10.94-2.48,4.9,2.56,10.3-.13,13.54-5.2,1.05-1.64,2.05-2.29,3.51-.64,2.97,3.34,6.81,3.67,10.88,3.34.74-.06,1.5.09,2.26.14-.49.6-.97,1.2-1.46,1.8-.95-.39-1.78.18-2.65.36-.51.23-1.02.18-1.53,0-.89-.2-1.78-.45-2.69-.58-.26-.04-.52-.08-.78-.11-.39-.06-.78-.11-1.13-.32-.2-.18-.32-.41-.37-.68Z" style="fill:#bebebe; stroke-width:0px;"/><path d="M34.35,49.15c6.64-4.99,8.71-17.26,21-13.37.48.15,1.95-1.04,2-1.69.24-2.95,5.35-3.75,3.25-7.61-.81-.02-1.63-.04-2.44-.06,1.83-.21,3.65-.41,5.48-.62v2.46c-2.56,1.94-4.82,4.13-5.46,7.48-.43,2.25-1.77,1.63-3.22,1.21-6.58-1.91-11.42.12-13.96,6.68-1.23,3.19-4.55,3.54-6.64,5.51Z" style="fill:#8c8c8c; stroke-width:0px;"/><path d="M50.82,0c-.88,2.59-2.12,5.23.66,7.48,1.57,1.27,3.25,1.06,4.74-.05C59.12,5.27,57.77,2.59,56.92,0h1.83c1.65,3.5,1.73,6.71-1.71,9.25-2.59,1.91-5.09,1.12-7.26-.64C46.72,6.11,47.59,3.03,48.99,0h1.83Z" style="fill:#1e1e1e; stroke-width:0px;"/><path d="M4.5,50.98c1.74,9.9,10.2,6.54,16.07,8.49,2.01.67,3.51,2.92,5.24,4.44h-3.05c-3.21-2.82-6.92-3.36-10.95-2.4-.66.26-1.26.64-1.9.91-2.71,1.13-3.56.43-3.93-2.62-.27-2.24-.17-4.66-1.86-6.55-.52-.58-.47-1.3-.04-1.97.14-.1.28-.21.42-.31Z" style="fill:#9d9d9d; stroke-width:0px;"/><path d="M14.83,45.5c4.87,4.12,9.41,1.01,14.02-.65-3.04,3.9-7.23,4.05-11.54,3.43-4.63-.67-8.61,1.45-12.8,2.7,0,0-.09.06-.09.06-2.11.99-3.02-.77-4.22-1.88v-2.46c.2-.24.4-.25.6.01h0c3.86,2.43,7.73,2.41,11.6.01h.01c.85-.33,1.21-1.62,2.41-1.23h0Z" style="fill:#9d9d9d; stroke-width:0px;"/><path d="M.2,49.16c1.41.63,2.81,1.25,4.22,1.88.85,3.02,1.48,6.12,2.61,9.03,1.27,3.3,3.17-.68,4.75.15-.08,2.8-2.94,2.34-4.26,3.7h-3.05c-.69-.53-1.12-1.32-.92-2.1.95-3.76-.12-6.92-2.52-9.8-.36-.43-.52-1.09-.83-1.61,0-.41,0-.82,0-1.23Z" style="fill:#8c8c8c; stroke-width:0px;"/><path d="M2.61,9.21c.29-2.08.58-4.15.99-7.14,2.9,6.13,6.82,9.42,12.98,7.79C21.43,8.58,24.3,5.25,24.59,0h2.44c0,.61,0,1.22.01,1.84-1.74-1.26-1.69.34-2.05,1.31-2.96,7.87-11.37,10.52-17.98,5.41-2.12-1.64-3.26-1.83-4.4.66Z" style="fill:#838383; stroke-width:0px;"/><path d="M13.61,50.39c-.61.21-1.21.42-1.82.63-.2.2-.43.37-.62.59-.4,0-.81.02-1.21.02-.33.36-.9.23-1.23.6.15,3.25,1.66,4.16,4.95,3.82,6.43-.67,11.28,2.28,14.57,7.85h-1.22c-2.83-4.62-6.81-7.35-12.32-6.72-3.6.41-6.82.25-6.88-4.15-.05-3.68,4.01-1.82,5.78-3.27.16.14.21.27.16.41-.05.14-.11.21-.16.21Z" style="fill:#e4e4e4; stroke-width:0px;"/><path d="M20.32,0c-.61,3.74-2.82,6.04-6.54,5.91C10.38,5.79,8.2,3.74,8.13,0h1.83C13.49,2.46,15.04,2.46,18.49,0h1.83Z" style="fill:#1f1f1f; stroke-width:0px;"/><path d="M.2,50.39c5.19,3.3,5.47,8.17,4.27,13.52H1.42c-.57-2.33.36-4.69-.14-7-.26-1.17-.37-2.41-1.08-3.45v-3.07Z" style="fill:#464646; stroke-width:0px;"/><path d="M63.63,43.63c-4.66-3.89-4.79-7.78,0-11.68v11.68Z" style="fill:#333; stroke-width:0px;"/><path d="M18.49,0c-.56,2.37-2.05,3.85-4.46,3.86C11.64,3.87,10.49,2.18,9.96,0h8.54Z" style="fill:#0f0f0f; stroke-width:0px;"/><path d="M7.52,63.91c1.42-1.23,2.84-2.46,4.26-3.7,4.05.08,8.52-1.13,10.99,3.7h-2.44c-3.46-1.45-6.91-1.61-10.37,0h-2.44Z" style="fill:#646464; stroke-width:0px;"/><path d="M44.11,0C39.92,6.29,33.26,6.29,30.08,0h1.83C35.37,2.2,38.83,1.7,42.28,0h1.83Z" style="fill:#343434; stroke-width:0px;"/><path d="M42.28,0C38.83,3.52,35.37,4.75,31.91,0h10.37Z" style="fill:#1e1e1e; stroke-width:0px;"/><path d="M.2,16.59c1.03-.8,2.17-1.49,3.07-2.42,1.12-1.14,1.92-2.81,3.91-1.57.64.4,1.2.92,1.8,1.38-1.33.58-2.69,1.11-3.98,1.76-1.23.62-2.4,1.37-3.6,2.06,0,0,0,0,0,0-.4.38-.8.39-1.21.02,0-.41,0-.82,0-1.23Z" style="fill:#f1f1f1; stroke-width:0px;"/><path d="M.2,53.47c3.36,3.13,2.92,6.71,1.22,10.45-2.83-3.19-.39-7.01-1.22-10.45Z" style="fill:#2d2d2d; stroke-width:0px;"/><path d="M9.96,63.91c3.46-3.47,6.91-2.84,10.37,0h-10.37Z" style="fill:#424242; stroke-width:0px;"/><path d="M31.31,47.94c-2.47,5.32-3.7,10.65,0,15.98h-2.44c0-4.3,0-8.6,0-12.91.22-.18.39-.42.59-.63,0-.2,0-.4.01-.6.58-.65.07-2.4,1.84-1.84Z" style="fill:#e4e4e4; stroke-width:0px;"/><path d="M63.63,6.76C59.68,5.66,62.58,2.04,61.19,0c5.49.54.97,4.75,2.44,6.76Z" style="fill:#4e4e4e; stroke-width:0px;"/><path d="M1.42,0c.35,2.98,1.64,6.09-1.22,8.6C.97,5.79-1.34,2.53,1.42,0Z" style="fill:#484848; stroke-width:0px;"/><path d="M57.53,63.91c1.59-2.07,3.2-4.11,6.1-4.3v1.23c-.59,1.79-2.24,2.3-3.66,3.07h-2.44Z" style="fill:#b9b9b9; stroke-width:0px;"/><path d="M59.97,63.91c1.22-1.02,2.44-2.05,3.66-3.07.91,3.6-1.47,3.22-3.66,3.07Z" style="fill:#888; stroke-width:0px;"/><path d="M.2,17.82c.4,0,.81-.01,1.21-.02-.4.42-.81.83-1.21,1.25,0-.41,0-.82,0-1.23Z" style="fill:#cdcdcd; stroke-width:0px;"/><path d="M.8,46.72c-.2,0-.4,0-.6-.01v-.61c.2.21.4.42.6.62Z" style="fill:#8c8c8c; stroke-width:0px;"/><path d="M4.75,32.2c.25-7.59,5.73-6.31,8.98-7.85,1.84-.87,3.51.75,3.9,2.81.78,4.12-2.31,4.49-5.12,5.23-1.82.48-2.52,1.86-2.16,3.79.4,2.13-.12,4.11-2.36,4.61-1.27.28-3.15-.09-4.1-.92-1.79-1.57-1.25-3.58,0-5.5.68-1.04.92-2.36.84-2.16Z" style="fill:#0d0d0d; stroke-width:0px;"/><path d="M20.28,39.87c-2.45-.34-3.63-1.77-3.51-4.17.11-2.26,1.37-3.68,3.67-3.59,2.35.09,3.85,1.64,3.79,3.93-.06,2.29-1.64,3.6-3.94,3.83Z" style="fill:#0d0d0d; stroke-width:0px;"/><path d="M49.9,13.52c3.89.41,5.83,2.69,5.63,6.36-.19,3.49-2.5,5.39-5.94,5.18-3.53-.21-5.75-2.42-5.62-5.98.12-3.55,2.41-5.45,5.93-5.56Z" style="fill:#161616; stroke-width:0px;"/><path d="M43.01,62.04c-3.37-.07-5.73-1.5-6.09-5.1-.36-3.64,1.55-6.04,5.01-6.51,2.56-.35,3.46-1.02,3.27-3.76-.23-3.39,2.12-5.23,5.16-5.85,3.35-.68,5.11,1.66,6.15,4.32,1.09,2.78.4,5.94-2.46,6.69-3.87,1-5.42,2.86-5.92,6.73-.31,2.39-2.6,3.51-5.12,3.5Z" style="fill:#1d1d1d; stroke-width:0px;"/><path d="M31.31,47.94c-.61.61-1.23,1.23-1.84,1.84-5.3-.25-10.5,2.25-15.86.61,0-.21,0-.41,0-.62,6.25-.34,12.99,1.11,17.68-4.94.8-.82,1.61-1.64,2.41-2.46,1.75-.1,1.99-1.66,2.78-2.77,2.94-4.13,2.9-7.71-.74-11.65-2.44-2.64-3-6.44-2.65-10.12.44-4.62-3.01-7.39-7.45-5.85-1.05.36-2.05,1.14-2.87-.32,2.05-3.19,4.41-5.09,7.97-1.92.21,0,.42,0,.63.01.41-.27.8-.29,1.16.09h-.02c.92.72,2.16-.16,3.08.61.6,0,1.2,0,1.8.01,1.9.24,1.18,1.38.74,2.33-.76,1.66-1.65,3.27-1.33,5.2,0,.61,0,1.23,0,1.84-.05,2.64.31,5.14,2.27,7.13.19.21.36.43.51.66.43.88,1.16,1.51,1.84,2.18.07.11.15.23.22.34,7.46,8.29-5.75,8.14-5.67,13.71.02,1.33-3.02,2.71-4.65,4.07Z" style="fill:#e9e9e9; stroke-width:0px;"/><path d="M12.4,46.73c-3.87,3.13-7.74,3.15-11.6,0,3.87,1.52,7.73,1.52,11.6,0Z" style="fill:#8c8c8c; stroke-width:0px;"/><path d="M14.82,45.5c-.8.41-1.61.81-2.41,1.22.8-.41,1.61-.81,2.41-1.22Z" style="fill:#8c8c8c; stroke-width:0px;"/><path d="M8.74,52.24c.41-.2.82-.4,1.23-.6-.41.2-.82.4-1.23.6Z" style="fill:#e9e9e9; stroke-width:0px;"/><path d="M29.46,50.38c-.2.21-.39.42-.59.63.2-.21.39-.42.59-.63Z" style="fill:#e9e9e9; stroke-width:0px;"/><path d="M11.18,51.61c.21-.2.41-.39.62-.59-.21.2-.41.39-.62.59Z" style="fill:#e9e9e9; stroke-width:0px;"/><path d="M39.22,15.98c.05,12.46,6.37,16.63,17.7,11.68-4.21,4.48-9.17,3.97-13.56,1.02-4.26-2.87-6.74-7.16-4.14-12.7Z" style="fill:#8c8c8c; stroke-width:0px;"/><path d="M36.17,18.45c.41-2.66.81-5.32,1.22-7.98.83.2,1.66.41,2.49.61,0,0-.01-.02-.01-.02-.23.18-.42.41-.62.63h.02c-.39.3-.27.89-.63,1.22h0c-.37.32-.25.9-.61,1.23h0c-.38.33-.25.92-.6,1.27,0,.4-.01.79-.02,1.19-.78.37.41,2.07-1.23,1.85Z" style="fill:#bfbfbf; stroke-width:0px;"/><path d="M31.92,6.75c3.25,0,6.5,0,9.75,0-3.25,1.86-6.5,1.87-9.75,0Z" style="fill:#838383; stroke-width:0px;"/><path d="M39.19,27.7c-2.43-1.89-2.96-4.57-3.02-7.44,1.73.15.37,1.88,1.25,2.47h0c.36.32.22.89.6,1.22.21.61.41,1.21.62,1.82.2.22.39.45.61.65h0c.37.44.37.87-.05,1.28Z" style="fill:#bfbfbf; stroke-width:0px;"/><path d="M27.05,1.83c1.63,1.64,3.25,3.28,4.88,4.91-2.48-.78-4.11-2.41-4.88-4.91Z" style="fill:#838383; stroke-width:0px;"/><path d="M37.42,22.74c-.42-.82-.83-1.65-1.25-2.47,0-.61,0-1.21,0-1.82.41-.62.82-1.24,1.23-1.85,0,2.05.01,4.1.02,6.14Z" style="fill:#bebebe; stroke-width:0px;"/><path d="M37.42,15.41c.2-.42.4-.85.6-1.27-.2.42-.4.85-.6,1.27Z" style="fill:#bebebe; stroke-width:0px;"/><path d="M38,23.96c-.2-.41-.4-.82-.6-1.23.2.41.4.82.6,1.23Z" style="fill:#bebebe; stroke-width:0px;"/><path d="M44.77,31.33c-.42-.21-.84-.41-1.27-.62.42.21.84.41,1.27.62Z" style="fill:#bebebe; stroke-width:0px;"/><path d="M38.02,14.14c.2-.41.41-.82.61-1.24-.2.41-.41.82-.61,1.24Z" style="fill:#bebebe; stroke-width:0px;"/><path d="M38.62,12.91c.21-.41.42-.82.63-1.23-.21.41-.42.82-.63,1.23Z" style="fill:#bebebe; stroke-width:0px;"/><path d="M42.9,30.11c-.42.01-.85.03-1.27.05,0,0,.01,0,.01,0-.07-.12-.14-.24-.21-.36.09-.11.17-.21.26-.32.4.21.81.42,1.21.64Z" style="fill:#bebebe; stroke-width:0px;"/><path d="M39.19,27.7c.02-.43.03-.85.05-1.28.21.4.42.81.63,1.21-.11.09-.21.18-.32.26-.12-.07-.24-.14-.35-.21,0,0,0,.02,0,.02Z" style="fill:#bebebe; stroke-width:0px;"/><path d="M39.23,26.43c-.2-.22-.41-.43-.61-.65.2.22.41.43.61.65Z" style="fill:#bebebe; stroke-width:0px;"/><path d="M39.24,11.69c.21-.21.41-.42.62-.63-.21.21-.41.42-.62.63Z" style="fill:#bebebe; stroke-width:0px;"/><path d="M39.87,27.64l.6.62c-.11.06-.22.12-.33.18-.36-.16-.68-.33-.3-.77l.03-.02Z" style="fill:#bebebe; stroke-width:0px;"/><path d="M43.52,30.72c-.21-.21-.42-.41-.63-.62.21.21.42.41.63.62Z" style="fill:#bebebe; stroke-width:0px;"/><path d="M41.08,28.86c.2.2.41.41.61.61,0,0-.02.03-.02.03-.44.38-.61.06-.77-.3.06-.11.12-.22.18-.33Z" style="fill:#bebebe; stroke-width:0px;"/><path d="M57.54,27.04c.2-.2.4-.41.61-.61-.2.2-.4.41-.61.61Z" style="fill:#8c8c8c; stroke-width:0px;"/><path d="M40.47,28.26c.2.2.4.41.6.61,0,0-.02.02-.02.02-.58.17-.78-.03-.61-.61l.02-.02Z" style="fill:#bebebe; stroke-width:0px;"/><path d="M56.92,27.66c.2-.2.41-.41.61-.61-.2.2-.41.41-.61.61Z" style="fill:#8c8c8c; stroke-width:0px;"/><path d="M22.76,11.67c7.66-3.99,11.85-1.34,11.83,7.37,0,3.81.9,7.83,3.79,10.07,8.52,6.63-2.24,8.92-2.62,13.46-.69-.07-1.37-.13-2.06-.2,0,0,.02.01.02.01,2.01-4.29,2.04-8.58-.01-12.87-4.31-4.8-8.68-9.56-12.92-14.43-2.4-2.77,1.54-2.13,1.97-3.41Z" style="fill:#fdfdfd; stroke-width:0px;"/><path d="M33.71,29.52c2.65,4.29,2.63,8.58.01,12.87,1.21-4.29,1.24-8.58-.01-12.87Z" style="fill:#e9e9e9; stroke-width:0px;"/><path d="M35.59,10.46c-1.03-.21-2.05-.41-3.08-.62,1.03.21,2.05.41,3.08.62Z" style="fill:#bfbfbf; stroke-width:0px;"/><path d="M32.52,9.85c-.39-.03-.77-.06-1.16-.09.39.03.77.06,1.16.09Z" style="fill:#bfbfbf; stroke-width:0px;"/><path d="M46.5,56.32c-.17,2.47-1.61,3.79-3.94,3.7-2.22-.09-3.61-1.68-3.56-3.82.05-2.35,1.71-3.74,4.02-3.69,2.25.05,3.43,1.5,3.48,3.81Z" style="fill:#0d0d0d; stroke-width:0px;"/><path d="M54.72,46.66c-.18,2.14-1.09,3.57-3.35,3.64-2.21.07-3.87-.88-4-3.25-.12-2.27,1.23-3.68,3.48-3.85,2.36-.17,3.45,1.33,3.86,3.45Z" style="fill:#0c0c0c; stroke-width:0px;"/><path d="M40.45,28.27c.2.2.41.41.61.61.2.2.41.41.61.61,0,.22-.02.43-.02.65-.82-.82-1.63-1.64-2.45-2.46.21,0,.43-.02.64-.03.2.2.41.41.61.61Z" style="fill:#bfbfbf; stroke-width:0px;"/></svg>