<?xml version="1.0" encoding="UTF-8"?><svg id="LSystem" xmlns="http://www.w3.org/2000/svg" viewBox="0 0 64 64"><defs><style>.cls-1{fill:#b9b9b9;}.cls-1,.cls-2,.cls-3,.cls-4,.cls-5,.cls-6,.cls-7,.cls-8,.cls-9,.cls-10{stroke-width:0px;}.cls-2{fill:#8b8b8b;}.cls-3{fill:#bdbdbd;}.cls-4{fill:#2a2a2a;}.cls-5{fill:#bbb;}.cls-6{fill:#bcbcbc;}.cls-7{fill:#8d8d8d;}.cls-8{fill:#8e8e8e;}.cls-9{fill:#8a8a8a;}.cls-10{fill:#bebebe;}</style></defs><g id="fysfF1.tif"><path class="cls-4" d="M63.87,61.21c0,.89.35,2.12-.1,2.56-.44.44-1.68.1-2.56.1h-18.23c.21-.32.44-.62.61-.96.15-.31.62-.6.31-.97-.21-.25-.6-.02-.89.08-1.67.58-3.39,1.03-4.96,1.86H8.42c-.03-.49,1.13-1.56-.39-1.33-2.28.35-4.66.35-6.82,1.33-.63-.02-1.32.25-1.18-.95.17-1.44.04-2.91.04-4.37.72.08,1.24.59,1.86.88.39.19.82.63,1.2.43.53-.28.12-.79-.03-1.17-.36-.91.36-1.22.85-1.67.54-.49.33-.79-.29-.8-1.2-.02-2.39.03-3.59.05,0-3.55,0-7.09,0-10.64,1.57.65,3.14,1.3,4.71,1.94.33.13.7.44,1.04.11.28-.27.05-.61-.12-.85-.54-.75-.22-1.28.35-1.8.22-.21.52-.47.3-.79-.1-.15-.46-.2-.69-.17-1.87.23-3.77.2-5.59.8,0-14.36,0-28.72,0-43.08q0-1.76,1.66-1.76c20.17,0,40.34.01,60.51-.03,1.29,0,1.69.17,1.69,1.62-.07,18.85-.04,37.7-.04,56.56-1.21.37-2.22,1.12-3.33,1.69-.31.16-.81.33-.65.78.13.37.64.31,1,.35.99.09,1.99.15,2.98.23ZM42.81,57.6c.25.02.53.14.71-.09.19-.25,0-.5-.19-.65-.98-.78-.81-1.58-.14-2.45.15-.19.28-.47.03-.66-.12-.09-.37-.07-.53,0-1.84.67-3.67,1.35-5.5,2.03-.23.09-.53.18-.52.46.03.43.44.38.73.43,1.8.32,3.6.62,5.4.93ZM55.43,59.31c-.12,0,.13.01.38,0,.36-.02.84.12,1.03-.26.23-.45-.28-.64-.54-.86-.54-.46-.5-.96-.24-1.53.15-.33.44-.74.18-1.05-.3-.35-.7-.01-1.02.14-1.53.75-3.06,1.51-4.58,2.28-.25.13-.7.21-.56.61.11.34.52.27.83.29,1.38.12,2.77.23,4.53.38ZM48.6,9.8c.37-.02.87.2,1.02-.23.15-.43-.35-.6-.65-.8-1.47-.97-2.94-1.93-4.42-2.89-.21-.13-.46-.31-.69-.16-.25.17-.16.47-.06.69.39.81.25,1.45-.53,1.94-.26.16-.6.38-.51.71.12.44.6.4.96.42,1.63.09,3.27.02,4.87.31ZM32.21,13.75c-.05-.11-.06-.25-.14-.33-1.46-1.48-2.91-2.98-4.42-4.41-.47-.45-.68.05-.58.44.25,1.01.1,1.74-1.05,1.98-.24.05-.53.18-.53.46,0,.38.38.47.66.55,1.82.52,3.64,1.03,5.47,1.52.23.06.5.12.61-.22ZM23.94,55.85c-1.82.46-3.77.95-5.72,1.46-.14.04-.25.22-.37.34.14.12.26.3.42.35,1.87.55,3.74,1.09,5.62,1.59.48.13,1.04,0,.6-.66-.6-.88-.51-1.58.12-2.39.45-.59,0-.75-.67-.7ZM48.03,50.45c.17.02.55.16.76-.11.33-.42-.12-.69-.37-.91-.65-.59-.56-1.16-.15-1.85.45-.76.14-1.13-.68-.83-1.66.61-3.29,1.3-4.93,1.97-.23.09-.54.22-.54.47.01.39.42.42.71.46,1.68.27,3.37.52,5.2.8ZM26.06,53.63c.09.06.23.21.4.25,1.89.45,3.79.91,5.69,1.32.73.16.81-.3.42-.73-.67-.75-.59-1.42-.08-2.2.43-.65.14-.97-.59-.77-1.75.49-3.5,1.01-5.24,1.54-.23.07-.47.17-.6.6ZM11.13,54.07c-1.62.32-3.47.67-5.31,1.04-.23.05-.55.05-.55.37,0,.29.3.36.53.44,1.77.63,3.54,1.25,5.32,1.87.22.08.52.2.69-.07.16-.24,0-.49-.16-.68-.69-.79-.43-1.45.19-2.14.58-.64.19-.86-.72-.83ZM11.78,15.88s.04,0,.05,0c0-.19.01-.38,0-.56-.02-.3.11-.68-.23-.84-.36-.16-.57.19-.74.43-.67.95-1.39.52-2.13.12-.21-.12-.47-.29-.68-.07-.19.21-.03.48.07.69.8,1.71,1.61,3.41,2.42,5.11.1.21.23.49.53.43.3-.06.29-.37.31-.61.13-1.56.26-3.13.39-4.69ZM53.76,44.51c.82,0,1.57.02,2.33,0,.63-.02,1.1-.17.39-.84-.42-.39-.83-.76-.62-1.46.12-.38.56-.87.08-1.2-.48-.33-.94.15-1.38.33-.47.19-.94.39-1.35.68-.96.68-2.27.79-2.96,1.88,1.07.94,2.39.33,3.52.62ZM19.37,48.38c-.11-.46-.46-.44-.75-.39-1.79.32-3.58.66-5.37,1.01-.23.04-.55.11-.47.45.03.14.23.29.39.35,1.7.65,3.4,1.31,5.12,1.92.66.23,1.09-.03.62-.71-.58-.84-.47-1.49.2-2.16.13-.12.18-.32.26-.47ZM48.62,26.63c-.23-1.72-.47-3.46-.7-5.19-.03-.24,0-.57-.26-.64-.41-.13-.52.28-.63.54-.34.8-.83,1.22-1.75.86-.28-.11-.68-.22-.87.07-.24.37.1.7.31.98.98,1.3,1.97,2.59,2.98,3.87.19.24.41.62.72.5.46-.17.16-.64.22-1ZM43.4,19.41c-.02-.07-.03-.14-.07-.18-1.36-1.56-2.9-2.95-4.45-4.31-.38-.33-.57.09-.5.41.22,1.06-.01,1.83-1.13,2.22-.41.15-.61.56-.03.76,1.84.63,3.73,1.08,5.64,1.42.21.04.53.05.53-.32ZM30.74,43.5c-1.99.35-3.98.69-5.96,1.04-.19.03-.4.12-.37.33.02.15.18.35.32.4,1.89.7,3.78,1.4,5.68,2.07.57.2.75-.15.43-.55-.77-.97-.71-1.77.21-2.59.39-.35.26-.67-.31-.7ZM22.69,16.48c-.39.1-.39.41-.33.71.2.99-.19,1.58-1.16,1.82-.24.06-.53.14-.58.41-.09.42.32.52.58.61,1.66.62,3.32,1.22,4.99,1.81.28.1.64.29.81-.08.07-.15-.13-.48-.28-.66-1.18-1.41-2.37-2.8-3.57-4.19-.12-.14-.28-.25-.47-.42ZM11.23,30.02v.11c.82,0,1.64.02,2.46,0,.48-.02,1.09-.23.42-.71-1.09-.77-.75-1.57-.36-2.48.18-.42.11-.84-.48-.53-1.74.9-3.45,1.84-5.17,2.78-.21.12-.47.27-.36.58.11.28.41.25.65.25.95.01,1.89,0,2.84,0Z"/><path class="cls-6" d="M.06,44.87c1.82-.6,3.72-.56,5.59-.8.23-.03.59.02.69.17.21.31-.08.58-.3.79-.56.52-.89,1.05-.35,1.8.17.23.4.58.12.85-.34.33-.71.02-1.04-.11-1.58-.63-3.14-1.29-4.71-1.94,0-.25,0-.51,0-.76Z"/><path class="cls-10" d="M.06,56.27c1.2-.02,2.39-.07,3.59-.05.62.01.83.31.29.8-.49.45-1.21.76-.85,1.67.15.37.56.89.03,1.17-.38.2-.81-.24-1.2-.43-.62-.3-1.14-.8-1.86-.88,0-.76,0-1.52,0-2.28Z"/><path class="cls-8" d="M63.87,61.21c-.99-.07-1.99-.14-2.98-.23-.36-.03-.87.02-1-.35-.16-.44.35-.62.65-.78,1.11-.57,2.12-1.32,3.33-1.69v3.04Z"/><path class="cls-9" d="M1.2,63.87c2.17-.98,4.54-.98,6.82-1.33,1.52-.23.37.84.39,1.33H1.2Z"/><path class="cls-2" d="M38.04,63.87c1.58-.83,3.29-1.28,4.96-1.86.28-.1.67-.32.89-.08.32.37-.16.66-.31.97-.16.34-.4.64-.61.96h-4.94Z"/><path class="cls-8" d="M42.81,57.6c-1.8-.31-3.6-.61-5.4-.93-.29-.05-.7,0-.73-.43-.02-.28.29-.38.52-.46,1.83-.68,3.66-1.37,5.5-2.03.16-.06.41-.08.53,0,.25.19.12.48-.03.66-.68.87-.84,1.67.14,2.45.18.15.38.4.19.65-.18.23-.46.11-.71.09Z"/><path class="cls-7" d="M55.43,59.31c-1.76-.15-3.14-.26-4.53-.38-.3-.03-.71.05-.83-.29-.14-.41.31-.48.56-.61,1.52-.77,3.05-1.53,4.58-2.28.32-.16.72-.49,1.02-.14.27.31-.02.72-.18,1.05-.27.57-.3,1.07.24,1.53.26.22.77.41.54.86-.19.38-.67.24-1.03.26-.25.02-.5,0-.38,0Z"/><path class="cls-7" d="M48.6,9.8c-1.6-.29-3.24-.22-4.87-.31-.36-.02-.84.02-.96-.42-.09-.33.25-.55.51-.71.77-.49.92-1.13.53-1.94-.1-.22-.2-.52.06-.69.23-.15.48.03.69.16,1.48.96,2.95,1.92,4.42,2.89.3.2.8.36.65.8-.15.43-.65.21-1.02.23Z"/><path class="cls-5" d="M32.21,13.75c-.11.34-.38.28-.61.22-1.83-.5-3.65-1-5.47-1.52-.28-.08-.66-.17-.66-.55,0-.28.29-.41.53-.46,1.15-.25,1.31-.97,1.05-1.98-.1-.4.1-.89.58-.44,1.51,1.43,2.96,2.93,4.42,4.41.08.08.1.22.14.33Z"/><path class="cls-8" d="M23.94,55.85c.68-.05,1.12.11.67.7-.62.81-.71,1.51-.12,2.39.44.65-.12.78-.6.66-1.88-.5-3.75-1.04-5.62-1.59-.16-.05-.28-.23-.42-.35.12-.12.23-.3.37-.34,1.94-.51,3.89-1,5.72-1.46Z"/><path class="cls-7" d="M48.03,50.45c-1.83-.28-3.51-.52-5.2-.8-.28-.05-.69-.07-.71-.46,0-.26.3-.38.54-.47,1.64-.66,3.27-1.35,4.93-1.97.81-.3,1.13.07.68.83-.41.69-.49,1.26.15,1.85.25.23.7.49.37.91-.21.27-.59.12-.76.11Z"/><path class="cls-7" d="M26.06,53.63c.12-.43.37-.53.6-.6,1.74-.52,3.49-1.05,5.24-1.54.73-.2,1.02.11.59.77-.51.79-.59,1.45.08,2.2.38.43.3.89-.42.73-1.9-.41-3.79-.87-5.69-1.32-.17-.04-.31-.19-.4-.25Z"/><path class="cls-8" d="M11.13,54.07c.91-.03,1.29.19.72.83-.62.7-.88,1.35-.19,2.14.16.19.32.43.16.68-.17.26-.47.14-.69.07-1.78-.61-3.55-1.24-5.32-1.87-.23-.08-.53-.16-.53-.44,0-.32.32-.33.55-.37,1.84-.36,3.69-.72,5.31-1.04Z"/><path class="cls-6" d="M11.78,15.88c-.13,1.56-.25,3.13-.39,4.69-.02.24-.01.55-.31.61-.3.06-.42-.21-.53-.43-.81-1.7-1.62-3.4-2.42-5.11-.1-.21-.27-.49-.07-.69.2-.22.47-.04.68.07.74.4,1.46.83,2.13-.12.17-.24.38-.59.74-.43.34.15.21.54.23.84.01.19,0,.38,0,.56-.02,0-.04,0-.05,0Z"/><path class="cls-7" d="M53.76,44.51c-1.12-.29-2.45.32-3.52-.62.69-1.09,2.01-1.2,2.96-1.88.41-.29.88-.49,1.35-.68.45-.18.91-.66,1.38-.33.48.33.04.82-.08,1.2-.21.69.2,1.06.62,1.46.71.67.24.82-.39.84-.76.03-1.51,0-2.33,0Z"/><path class="cls-8" d="M19.37,48.38c-.08.15-.13.34-.26.47-.68.67-.78,1.32-.2,2.16.47.68.03.95-.62.71-1.72-.61-3.42-1.27-5.12-1.92-.16-.06-.36-.21-.39-.35-.08-.34.24-.41.47-.45,1.79-.35,3.58-.69,5.37-1.01.29-.05.65-.07.75.39Z"/><path class="cls-3" d="M48.62,26.63c-.05.36.25.83-.22,1-.31.11-.53-.27-.72-.5-1-1.28-2-2.57-2.98-3.87-.21-.28-.55-.61-.31-.98.19-.29.59-.18.87-.07.92.36,1.41-.06,1.75-.86.11-.27.22-.67.63-.54.26.08.23.4.26.64.23,1.74.47,3.48.7,5.19Z"/><path class="cls-6" d="M43.4,19.41c0,.37-.32.36-.53.32-1.91-.34-3.8-.79-5.64-1.42-.58-.2-.38-.61.03-.76,1.11-.4,1.35-1.16,1.13-2.22-.07-.33.12-.75.5-.41,1.55,1.37,3.08,2.75,4.45,4.31.04.04.04.11.07.18Z"/><path class="cls-1" d="M30.74,43.5c.57.03.69.35.31.7-.92.82-.99,1.62-.21,2.59.32.4.13.75-.43.55-1.9-.67-3.79-1.36-5.68-2.07-.14-.05-.29-.25-.32-.4-.03-.21.18-.3.37-.33,1.98-.35,3.97-.69,5.96-1.04Z"/><path class="cls-6" d="M22.69,16.48c.19.17.34.28.47.42,1.19,1.39,2.39,2.78,3.57,4.19.15.18.35.51.28.66-.17.38-.53.18-.81.08-1.67-.59-3.34-1.18-4.99-1.81-.26-.1-.67-.19-.58-.61.05-.27.34-.35.58-.41.96-.24,1.36-.83,1.16-1.82-.06-.3-.06-.61.33-.71Z"/><path class="cls-6" d="M11.23,30.02c-.95,0-1.9,0-2.84,0-.24,0-.54.03-.65-.25-.11-.3.15-.46.36-.58,1.72-.94,3.43-1.88,5.17-2.78.59-.3.66.12.48.53-.39.91-.73,1.7.36,2.48.67.48.06.69-.42.71-.82.03-1.64,0-2.46,0v-.11Z"/></g></svg>