<?xml version="1.0" encoding="UTF-8"?><svg id="Layer_3" xmlns="http://www.w3.org/2000/svg" viewBox="0 0 64 64"><g id="GBosnF.tif"><path d="M63.95,32c0,10-.05,20,.05,30,.02,1.68-.33,2-2,2-20-.08-40-.08-60,0-1.67,0-2-.32-2-2C.08,42,.08,22,0,2,0,.32.32,0,2,0c20,.08,40,.08,60,0,1.67,0,2.02.32,2,2-.1,10-.05,20-.05,30ZM6.93,12.51c7.9.03,7.79-10.78.26-10.9-7.72-.12-7.89,10.87-.26,10.9ZM19.46,12.51c7.88.02,7.67-10.81.14-10.9-7.71-.09-7.78,10.88-.14,10.9ZM31.65,12.51c7.97.09,8.09-10.32.7-10.9-7.81-.61-8.22,10.81-.7,10.9ZM49.92,6.91c-.04-7.8-11.05-7.31-10.9.31.15,7.62,10.93,7.41,10.9-.31ZM51.49,6.71c-.09,7.97,10.32,8.09,10.9.7.61-7.81-10.81-8.22-10.9-.7ZM12.51,19.66c.03-7.91-10.72-7.75-10.9-.25-.18,7.73,10.87,7.87,10.9.25ZM24.99,19.82c-.09-6.53.74-5.71-4.98-5.72-6.66,0-5.91-.77-5.91,4.76,0,7.02-.8,6.09,4.95,6.1,6.75.01,5.82.83,5.93-5.14ZM37.45,19.72c-.09-6.38.75-5.62-5.07-5.62-6.59,0-5.82-.76-5.81,4.86,0,6.87-.82,6,5.05,6.01,6.67,0,5.72.83,5.84-5.24ZM44.4,14.08c-7.85.01-7.45,10.94.13,10.9,7.65-.05,7.57-10.91-.13-10.9ZM56.81,24.98c7.91.03,7.75-10.74.25-10.9-7.73-.16-7.87,10.87-.25,10.9ZM6.8,37.45c7.93.07,7.99-10.58.53-10.9-7.77-.33-8.11,10.83-.53,10.9ZM14.08,31.71c.09,6.53-.74,5.71,4.98,5.72,6.66,0,5.91.76,5.91-4.76,0-7.02.8-6.09-4.95-6.1-6.75-.01-5.82-.83-5.93,5.14ZM37.45,32.09c.02-7.9-10.77-7.69-10.9-.17-.13,7.71,10.88,7.81,10.9.17ZM44.68,26.54c-6.43.09-5.64-.75-5.65,5.05,0,6.6-.76,5.84,4.83,5.84,6.91,0,6.02.82,6.03-5.03,0-6.69.83-5.75-5.22-5.86ZM56.86,26.55c-7.84.02-7.45,10.95.14,10.9,7.65-.06,7.56-10.91-.14-10.9ZM7.2,49.92c7.8-.04,7.35-11.08-.28-10.9-7.61.18-7.43,10.94.28,10.9ZM19.56,49.92c7.84-.01,7.52-10.95-.07-10.9-7.66.05-7.61,10.91.07,10.9ZM26.54,44.27c.09,6.41-.75,5.63,5.06,5.63,6.6,0,5.83.76,5.83-4.85,0-6.88.82-6.01-5.04-6.02-6.68,0-5.73-.83-5.85,5.23ZM49.92,44.63c.04-7.92-10.68-7.8-10.9-.31-.22,7.74,10.86,7.92,10.9.31ZM57.02,49.92c7.83-.02,7.43-11-.17-10.9-7.65.1-7.53,10.92.17,10.9ZM12.51,57.05c.03-7.91-10.73-7.72-10.9-.22-.17,7.72,10.87,7.85,10.9.22ZM24.98,56.8c-.04-7.8-11.08-7.35-10.9.28.18,7.61,10.94,7.43,10.9-.28ZM37.45,56.85c-.02-7.83-11-7.43-10.9.17.1,7.65,10.92,7.53,10.9-.17ZM44.57,62.39c7.82-.03,7.39-11-.22-10.9-7.63.1-7.49,10.92.22,10.9ZM62.38,57.01c.02-7.88-10.81-7.67-10.9-.14-.09,7.71,10.88,7.78,10.9.14Z" style="fill:#cacaca; stroke-width:0px;"/><path d="M6.93,12.51c-7.62-.03-7.46-11.02.26-10.9,7.53.12,7.64,10.92-.26,10.9Z" style="fill:#fff; stroke-width:0px;"/><path d="M19.46,12.51c-7.64-.02-7.56-10.99.14-10.9,7.53.09,7.74,10.91-.14,10.9Z" style="fill:#fff; stroke-width:0px;"/><path d="M31.65,12.51c-7.53-.08-7.11-11.51.7-10.9,7.39.58,7.27,10.99-.7,10.9Z" style="fill:#fff; stroke-width:0px;"/><path d="M49.92,6.91c.04,7.72-10.75,7.93-10.9.31-.15-7.62,10.86-8.11,10.9-.31Z" style="fill:#fff; stroke-width:0px;"/><path d="M51.49,6.71c.08-7.53,11.51-7.11,10.9.7-.58,7.39-10.99,7.27-10.9-.7Z" style="fill:#fff; stroke-width:0px;"/><path d="M12.51,19.66c-.03,7.62-11.08,7.48-10.9-.25.18-7.5,10.93-7.66,10.9.25Z" style="fill:#fff; stroke-width:0px;"/><path d="M24.99,19.82c-.12,5.97.82,5.16-5.93,5.14-5.75-.01-4.95.92-4.95-6.1,0-5.52-.75-4.77,5.91-4.76,5.71,0,4.88-.81,4.98,5.72Z" style="fill:#080808; stroke-width:0px;"/><path d="M37.45,19.72c-.12,6.07.84,5.25-5.84,5.24-5.87,0-5.05.86-5.05-6.01,0-5.62-.77-4.86,5.81-4.86,5.83,0,4.98-.76,5.07,5.62Z" style="fill:#080808; stroke-width:0px;"/><path d="M44.4,14.08c7.7-.01,7.77,10.85.13,10.9-7.58.05-7.97-10.88-.13-10.9Z" style="fill:#fff; stroke-width:0px;"/><path d="M56.81,24.98c-7.62-.03-7.48-11.06.25-10.9,7.5.15,7.66,10.93-.25,10.9Z" style="fill:#fff; stroke-width:0px;"/><path d="M6.8,37.45c-7.58-.06-7.24-11.23.53-10.9,7.46.32,7.4,10.96-.53,10.9Z" style="fill:#fff; stroke-width:0px;"/><path d="M14.08,31.71c.12-5.97-.81-5.16,5.93-5.14,5.75.01,4.95-.92,4.95,6.1,0,5.52.75,4.77-5.91,4.76-5.71,0-4.88.81-4.98-5.72Z" style="fill:#080808; stroke-width:0px;"/><path d="M37.45,32.09c-.02,7.64-11.03,7.54-10.9-.17.13-7.52,10.92-7.73,10.9.17Z" style="fill:#fff; stroke-width:0px;"/><path d="M44.68,26.54c6.05.12,5.22-.83,5.22,5.86,0,5.84.88,5.02-6.03,5.03-5.59,0-4.84.76-4.83-5.84,0-5.8-.78-4.96,5.65-5.05Z" style="fill:#080808; stroke-width:0px;"/><path d="M56.86,26.55c7.7-.02,7.79,10.84.14,10.9-7.59.06-7.98-10.88-.14-10.9Z" style="fill:#fff; stroke-width:0px;"/><path d="M7.2,49.92c-7.71.04-7.89-10.72-.28-10.9,7.63-.18,8.07,10.86.28,10.9Z" style="fill:#fff; stroke-width:0px;"/><path d="M19.56,49.92c-7.68.01-7.73-10.85-.07-10.9,7.58-.05,7.91,10.89.07,10.9Z" style="fill:#fff; stroke-width:0px;"/><path d="M26.54,44.27c.12-6.06-.83-5.24,5.85-5.23,5.86,0,5.04-.87,5.04,6.02,0,5.6.77,4.85-5.83,4.85-5.81,0-4.97.77-5.06-5.63Z" style="fill:#080808; stroke-width:0px;"/><path d="M49.92,44.63c-.04,7.6-11.12,7.42-10.9-.31.22-7.48,10.94-7.61,10.9.31Z" style="fill:#fff; stroke-width:0px;"/><path d="M57.02,49.92c-7.7.02-7.81-10.79-.17-10.9,7.6-.1,8,10.87.17,10.9Z" style="fill:#fff; stroke-width:0px;"/><path d="M12.51,57.05c-.03,7.63-11.07,7.5-10.9-.22.16-7.5,10.92-7.69,10.9.22Z" style="fill:#fff; stroke-width:0px;"/><path d="M24.98,56.8c.04,7.71-10.72,7.89-10.9.28-.18-7.63,10.86-8.07,10.9-.28Z" style="fill:#fff; stroke-width:0px;"/><path d="M37.45,56.85c.02,7.7-10.79,7.82-10.9.17-.1-7.6,10.87-8,10.9-.17Z" style="fill:#fff; stroke-width:0px;"/><path d="M44.57,62.39c-7.71.03-7.85-10.8-.22-10.9,7.61-.1,8.04,10.87.22,10.9Z" style="fill:#fff; stroke-width:0px;"/><path d="M62.38,57.01c-.02,7.64-10.99,7.56-10.9-.14.09-7.53,10.91-7.74,10.9.14Z" style="fill:#fff; stroke-width:0px;"/></g></svg>