<?xml version="1.0" encoding="UTF-8"?><svg id="Pendulum" xmlns="http://www.w3.org/2000/svg" viewBox="0 0 64 64"><g id="DjBOFO.tif"><path d="M63.97,32c0,10.19-.02,20.38.03,30.57,0,1.17-.26,1.43-1.43,1.43-20.38-.04-40.76-.04-61.14,0-1.17,0-1.43-.26-1.43-1.43.04-20.38.04-40.76,0-61.14C0,.26.26,0,1.43,0c20.38.04,40.76.04,61.14,0,1.17,0,1.44.26,1.43,1.43-.05,10.19-.03,20.38-.03,30.57ZM23.11,14.36c-2.3,1.83-5.43,3.22-6.09-.42,1.47-.11,2.86-.19,4.3-.5-.95-.23-1.74-.74-2.36-1.52.77.02,1.4-.25,1.88-.81-.88-.38-1.53-1.03-1.97-1.94-.38,1.23-.44,2.34-1.55,3.04-.15-.16-.3-.33-.45-.49,1.1-1.77-1.61-1.5-1.48-2.75-.68,2.2-1,2.74-2.56.81-.41.53-.82,1.06-1.24,1.6,3.07.97,6.87,6.64,1.23,5.67,1.78-1.21,1.3-1-.11-3.05-.78,1.93-1.55,3.41-3.63,2.72.23-.89.78-1.44,1.65-1.65-.48-.43-.96-.86-1.44-1.29-.38.76-.89,1.43-1.52,2.01-.4.39-1.16-2.41-.93-1.64-.47.51-.93,1.02-1.4,1.53,1.86,1.26,2.95,3.33,4.24,5.14-1.6.98-1.66,1.24-3.02-.03.41-.63.95-.78,1.6-.46-.33-.69-.65-1.38-.98-2.06-1.3.98-1.53.87-3.1.67-.11.49-.33.92-.65,1.31-.14.75.27,1.03,1.23.86.23.85,2.85,1.35.74,2.59.15-.96-.28-1.51-1.3-1.65,1.08.63-2.93,1.99.33,2.31-.41,1.69-.93,1.52,1.03,2.75-.2-.13,1.87-3.32,2.3-3.62,1.98-1.33,4.73-.53,6.74.35,4.38,1.92,8.14,6.21,9.82,10.64,2.34,6.17-.5,12.93,1.02,19.13.36,1.44,1.13,4.19,3.35,2.89,1.43-.84.6-5.5.6-6.94,0-3.23-1.06-8.46,1.45-10.99,1.83-1.85,7.19-3.51,9.57-2.61,2.92,1.1,5.42,5.71,2.99,8.4-3.49,3.87-5.23-1.85-7.59-3.48.95,4.76,2.51,6.17-3.13,4.02,1.28,4.83,6.85-.23,9.23,1.81,2.19,1.88-.17,5.37-2.72,2.91.58,2.19,1.09,3.12-1.55,3.03,1.38.8,1.32.8,1.62,2.23,1.17-2.23,2.79-3.94,4.91-2.49-.46,1.11-1.24,1.56-2.33,1.36.49.26,2.03,1.63,1.91,1.78,1.02-1.3-.01-1.19,1.82-2.12.53.56.84,1.23.93,2.02.49-.33.98-.66,1.48-1-.58-.65-1.27-1.11-2.09-1.37-2.77-2.96-2.62-11.85,2.64-11.31,4.05.41,3.32,5.91-1.18,3.93.35.92.47,1.87.37,2.87-.92-.58-1.47-.44-1.66.43,3.24.95,1.16-.86,3.92-1.22,1.69-.22,2.83,1.3,4.47,1.9.09.6.17,1.19.26,1.79.72-.55,1.44-1.1,2.16-1.64-.7-.16-1.39-.32-2.09-.48-.52-1.23-2.86-5.11-1.93-6.18,1.39-1.61,2.41-.39,3.5.6-.79.37-1.58.74-2.36,1.13.88.77,1.4,1.1,1.58,2.3.35-1.01.94-1.87,1.78-2.56,1.01,1.84.86,2.37,2.76.9.59-.46-6.06-3.09-1.91-4.69.05.84.33,1.58.85,2.22.52-1.55-.87-4.07,1.22-4.23-.85-.47-1.4-1.17-1.62-2.08-2.26,5.46-8.08,5.62-12.38,1.96.41-.96.83-1.93,1.24-2.89,1.22-.51,2.43-1.01,3.65-1.52-.18,1.71-.38,3.19-.21,4.9.3-1.13.94-2.04,1.91-2.75.23.66.5,1.31.82,1.93.8-.63,1.63-.92,2.33-1.69-1.99-.77-6.34-3.62-4.43-6.56,2.65-4.06,3.38,2,5.2.92.58.69.91,1.5.97,2.42.51-.42,1.02-.84,1.53-1.25-.59-.74-1.31-1.24-2.18-1.52-2.2-3.22.91-3.83.6-1.73,1.77-.27-.64-3.59,1.58-3.5-2.13-2.67-1.12-.37-2.86.67-2.15,1.29-4.25,1.74-6.78.99-7.1-2.12.26-8.73,1.83-3.08.46-1.65.05-2.54.66-3.93.86-1.94,2.19-1.22,1.72-3.69-1.22,1.37-2.83,2.23-4.36,3.23,0,0,.03.05.03.05-.62-2.34-1.83-4.14,1.02-4.81-3.03-1.33-2.95,2.44-5.54,1.17.15-1,.66-1.31,1.55-.92l-1.04-2c-.53.8-1.17,1.51-1.9,2.13.04-1.5-2.14-3.12-2.2-.18-.01.66,1.63,1.09,1.83,1.63.86,2.41,2.85,2.66,2.24,6.11-.35,1.94-1.56,3.47-2.7,4.99-2.38,3.15-4.22,5.37-7.24,1.17-1.99-2.76-2.16-7.36,2.2-4.83-.02.02-2,4.41-1.04,3.55.7-.76,1.39-1.54,2.07-2.33-.13-.33.53,2.28,1.34,1.76,1.01-.65-1.07-3-1.31-3.3l1.28-2.64c-.17-1.47.95-.65,1.6-2.04-.99-.1-1.5-.61-1.51-1.54-1.61,3.76-3.84,4.11-7.41,3.34l-.03.04c.48-3.22,2.08-2.47,4.55-2.05-1.26-2.1-3.83-2.03-2.73-4.66.93.35,1.44.99,1.54,1.91.49-.43.97-.87,1.46-1.3-.19-.21-2.2-1.56-2-1.92.37-.65,2.38-2.48-.2-1.44-2.9,1.17-2.76,3.74-6.33,1.65.7-.59,1.39-1.18,2.09-1.77.07.68.15,1.36.22,2.04.89-2.14,1.04-.59,2.3-1.96-.68-.32-1.41-.45-2.19-.4.06-.92.43-1.63,1.14-2.13-.49-.41-.97-.82-1.46-1.22-.33,1.01-.9,1.87-1.69,2.58-.16-.17-.32-.34-.48-.51-.52-.91-1.04-1.83-1.56-2.74-.14.46-.28.91-.42,1.37-6.15-1.92.84,4.4,1.04,6.36.54,5.23-4.52,7.38-6.08,1.84,1.39-.04,2.78-.06,4.17-.06-.94-.22-1.57-.76-1.88-1.63,1.36-1.39.67-1.51-.6-2.92-.1.8-.27,1.59-.5,2.36Z" style="fill:#fff; stroke-width:0px;"/><path d="M17.32,12.21c1.12-.7,1.17-1.81,1.55-3.04.43.91,1.09,1.55,1.97,1.94-.49.56-1.12.83-1.88.81.62.78,1.41,1.29,2.36,1.52-1.44.31-2.83.39-4.3.5.65,3.64,3.79,2.25,6.09.42.37.19.74.37,1.1.56.32.87.94,1.42,1.88,1.63-1.39,0-2.78.02-4.17.06,1.56,5.53,6.61,3.38,6.08-1.84-.2-1.96-7.18-8.28-1.04-6.36.14-.46.28-.91.42-1.37.52.91,1.04,1.83,1.56,2.74-.5-.13-.99-.26-1.49-.39l.12,1.23c.62-.11,1.23-.22,1.85-.33.8-.71,1.36-1.57,1.69-2.58.49.41.97.82,1.46,1.22-.7.5-1.08,1.21-1.14,2.13-.11.11-.22.21-.33.32l-2.09,1.77c3.57,2.1,3.43-.48,6.33-1.65,2.58-1.04.56.8.2,1.44-.2.36,1.81,1.71,2,1.92-.49.43-.97.87-1.46,1.3-.1-.92-.61-1.56-1.54-1.91-1.1,2.64,1.47,2.56,2.73,4.66-2.47-.43-4.07-1.17-4.55,2.05-1.52-1.22,2.37-5.28-1.25-5.28-1.3,0-2.3,1.42-2.48,2.56-.44,2.82,1.35,2.31,3.75,2.68,3.57.77,5.8.43,7.41-3.34,0,.93.51,1.44,1.51,1.54-.66,1.39-1.78.57-1.6,2.04-1.17.52-3.18.63-1.28,2.64.25.3,2.33,2.65,1.31,3.3-.82.52-1.47-2.09-1.34-1.76-.68.79-1.37,1.56-2.07,2.33-.96.86,1.02-3.53,1.04-3.55-4.36-2.53-4.19,2.07-2.2,4.83,3.02,4.19,4.87,1.98,7.24-1.17,1.15-1.52,2.36-3.06,2.7-4.99.62-3.44-1.37-3.7-2.24-6.11-.19-.54-1.84-.98-1.83-1.63.06-2.94,2.24-1.32,2.2.18.73-.62,1.37-1.33,1.9-2.13l1.04,2c-.89-.39-1.4-.09-1.55.92,2.6,1.27,2.52-2.5,5.54-1.17-2.85.66-1.64,2.47-1.02,4.81-.57-.93-1.19-1.82-1.87-2.68-1.03,2.04-.81,4.84,1.84,2.63,1.53-1,3.14-1.86,4.36-3.23.47,2.47-.86,1.75-1.72,3.69-.62,1.39-.2,2.28-.66,3.93-1.57-5.65-8.93.97-1.83,3.08,2.53.75,4.63.3,6.78-.99,1.73-1.04.73-3.34,2.86-.67-2.22-.09.19,3.23-1.58,3.5.31-2.1-2.79-1.49-.6,1.73-.11.12-.21.23-.32.35-1.82,1.08-2.55-4.98-5.2-.92-1.91,2.93,2.44,5.79,4.43,6.56-.7.76-1.53,1.06-2.33,1.69-.32-.63-.59-1.27-.82-1.93-.97.7-1.61,1.62-1.91,2.75-.17-1.71.02-3.19.21-4.9-1.22.51-2.43,1.01-3.65,1.52-.25-1.09-.65-2.1-1.22-3.05,2.04.59,4.22,1.95,4.04-1.5-.1-1.88-2.08-3.58-3.98-3.36-1.71.2-4.68,3.47-4.67,5.38,0,2.14,3.21,4.18,4.6,5.42,4.29,3.66,10.11,3.5,12.38-1.96.23.92.77,1.61,1.62,2.08-2.09.17-.7,2.68-1.22,4.23-.52-.65-.8-1.39-.85-2.22-4.14,1.6,2.51,4.23,1.91,4.69-1.9,1.47-1.75.94-2.76-.9-.84.7-1.43,1.55-1.78,2.56-.17-1.2-.7-1.53-1.58-2.3.78-.39,1.57-.76,2.36-1.13-1.08-.99-2.11-2.21-3.5-.6-.92,1.07,1.42,4.95,1.93,6.18-.11.11-.22.22-.33.33-1.63-.59-2.78-2.12-4.47-1.9-2.75.36-.68,2.18-3.92,1.22.19-.86.74-1.01,1.66-.43.1-.99-.02-1.95-.37-2.87,4.5,1.98,5.23-3.51,1.18-3.93-5.27-.54-5.42,8.35-2.64,11.31-.11.12-.21.23-.32.35-1.83.93-.8.82-1.82,2.12.12-.15-1.43-1.52-1.91-1.78,1.09.2,1.87-.25,2.33-1.36-2.12-1.46-3.73.26-4.91,2.49-.31-1.44-.24-1.43-1.62-2.23,2.64.09,2.13-.84,1.55-3.03,2.54,2.46,4.91-1.03,2.72-2.91-2.38-2.04-7.94,3.02-9.23-1.81,5.64,2.15,4.08.74,3.13-4.02,2.35,1.63,4.1,7.35,7.59,3.48,2.43-2.69-.07-7.3-2.99-8.4-2.38-.9-7.74.76-9.57,2.61-2.52,2.53-1.45,7.76-1.45,10.99,0,1.44.83,6.1-.6,6.94-2.21,1.3-2.99-1.45-3.35-2.89-1.53-6.2,1.32-12.96-1.02-19.13-1.69-4.43-5.44-8.72-9.82-10.64-2.01-.88-4.76-1.68-6.74-.35-.43.29-2.5,3.49-2.3,3.62-1.96-1.23-1.45-1.06-1.03-2.75-3.27-.32.74-1.68-.33-2.31,1.01.13,1.44.68,1.3,1.65,2.11-1.24-.5-1.74-.74-2.59-.96.18-1.37-.11-1.23-.86.32-.38.54-.82.65-1.31,1.56.2,1.8.31,3.1-.67.33.69.65,1.38.98,2.06-.65-.33-1.19-.17-1.6.46,1.35,1.27,1.42,1.01,3.02.03-1.29-1.81-2.38-3.88-4.24-5.14.47-.51.93-1.02,1.4-1.53-.23-.77.52,2.03.93,1.64.63-.58,1.14-1.25,1.52-2.01.48.43.96.86,1.44,1.29-.87.21-1.42.76-1.65,1.65,2.08.7,2.85-.79,3.63-2.72,1.41,2.04,1.89,1.84.11,3.05,5.64.97,1.84-4.7-1.23-5.67.41-.53.82-1.06,1.24-1.6,1.56,1.93,1.87,1.39,2.56-.81-.13,1.25,2.58.98,1.48,2.75-.42-.21-.83-.42-1.25-.63.02.47.04.94.05,1.41.55-.1,1.1-.19,1.65-.29ZM34.17,30.19c-.41-.81-.82-1.61-1.23-2.42-1.61,1.38-3.24,2.26-3.77,4.34-.44-.8-.87-1.6-1.31-2.4,9.47-3.21.73-11.69-2.92-4.28-1.31,2.66.05,6.09,1.85,8.42,2.42,3.12,3.54,1.4,6.72-.53,2.73.03,3.13-2.08.66-3.13ZM19.17,17.22c-2.13,2.37-3.16,7.84,1.95,7.85,5.03,0,.96-7.04-1.95-7.85Z" style="fill:#000; stroke-width:0px;"/><path d="M46.29,38.66c-1.39-1.25-4.59-3.28-4.6-5.42,0-1.91,2.96-5.18,4.67-5.38,1.9-.22,3.88,1.48,3.98,3.36.19,3.46-2,2.1-4.04,1.5.57.95.97,1.96,1.22,3.05-.41.96-.83,1.93-1.24,2.89Z" style="fill:#fff; stroke-width:0px;"/><path d="M38.79,23.82c-1.9-2.01.11-2.12,1.28-2.64-.43.88-.85,1.76-1.28,2.64Z" style="fill:#fff; stroke-width:0px;"/><path d="M24.21,14.93c-.37-.19-.74-.37-1.1-.56.24-.77.41-1.56.5-2.36,1.27,1.41,1.96,1.53.6,2.92Z" style="fill:#000; stroke-width:0px;"/><path d="M31.44,11.07c.77-.05,1.5.08,2.19.4-1.25,1.37-1.41-.18-2.3,1.96-.07-.68-.15-1.36-.22-2.04.11-.11.22-.21.33-.32Z" style="fill:#000; stroke-width:0px;"/><path d="M57.11,30.67c.86.28,1.59.78,2.18,1.52-.51.42-1.02.84-1.53,1.25-.06-.93-.38-1.74-.97-2.42.11-.12.21-.23.32-.35Z" style="fill:#000; stroke-width:0px;"/><path d="M29.42,10.29c-.62.11-1.23.22-1.85.33l-.12-1.23c.5.13.99.26,1.49.39.16.17.32.34.48.51Z" style="fill:#fff; stroke-width:0px;"/><path d="M17.32,12.21c-.55.1-1.1.19-1.65.29-.02-.47-.04-.94-.05-1.41.42.21.83.42,1.25.63.15.16.3.33.45.49Z" style="fill:#fff; stroke-width:0px;"/><path d="M54.81,49.3c.7.16,1.39.32,2.09.48-.72.55-1.44,1.1-2.16,1.64-.09-.6-.17-1.19-.26-1.79.11-.11.22-.22.33-.33Z" style="fill:#000; stroke-width:0px;"/><path d="M45.92,53.06c.81.26,1.51.72,2.09,1.37-.49.33-.98.66-1.48,1-.09-.79-.4-1.47-.93-2.02.11-.12.21-.23.32-.35Z" style="fill:#000; stroke-width:0px;"/><path d="M33.5,33.33c-3.18,1.93-4.3,3.65-6.72.53-1.8-2.33-3.17-5.76-1.85-8.42,3.65-7.41,12.39,1.07,2.92,4.28.44.8.87,1.6,1.31,2.4.53-2.08,2.16-2.96,3.77-4.34.41.81.82,1.61,1.23,2.42-.22,1.04-.44,2.09-.66,3.14Z" style="fill:#fff; stroke-width:0px;"/><path d="M19.17,17.22c2.91.8,6.98,7.85,1.95,7.85-5.12,0-4.08-5.48-1.95-7.85Z" style="fill:#fff; stroke-width:0px;"/><path d="M32.76,20.94c-2.41-.37-4.2.14-3.75-2.68.18-1.14,1.18-2.56,2.48-2.56,3.62,0-.27,4.06,1.25,5.28,0,0,.03-.04.03-.04Z" style="fill:#fff; stroke-width:0px;"/><path d="M49.5,19.63c-2.65,2.21-2.86-.59-1.84-2.63.67.86,1.29,1.75,1.87,2.68,0,0-.03-.05-.03-.05Z" style="fill:#fff; stroke-width:0px;"/><path d="M33.5,33.33c.22-1.05.44-2.09.66-3.14,2.46,1.06,2.06,3.17-.66,3.14Z" style="fill:#fff; stroke-width:0px;"/></g></svg>