<svg width="461" height="461" viewBox="0 0 461 461" fill="none" xmlns="http://www.w3.org/2000/svg">
<path opacity="0.35" fill-rule="evenodd" clip-rule="evenodd" d="M155.196 355.467L95.0517 348.882C92.2843 348.579 91.3862 344.997 93.6833 343.424L125.137 321.886C129.607 318.825 132.91 314.343 134.508 309.167L146.197 271.326C147.039 268.599 150.852 268.477 151.867 271.144L173.499 327.997C175.698 330.922 177.001 334.559 177.001 338.5C177.001 348.165 169.166 356 159.501 356C158.015 356 156.573 355.815 155.196 355.467Z" fill="#C33434"/>
<circle opacity="0.4" cx="181.5" cy="352.5" r="22.5" fill="#C76514"/>
<circle opacity="0.45" cx="212.5" cy="352.5" r="28.5" fill="#B86F22"/>
<circle opacity="0.5" cx="243.5" cy="333.5" r="32.5" fill="#A97930"/>
<circle opacity="0.55" cx="248.5" cy="294.5" r="37.5" fill="#9A833E"/>
<path opacity="0.6" fill-rule="evenodd" clip-rule="evenodd" d="M274.788 260.346C272.606 282.606 253.834 300 231 300C222.62 300 214.786 297.657 208.12 293.59L201.971 295.054C199.354 295.678 196.899 296.85 194.768 298.493L185.332 305.772C183.36 307.293 180.5 305.887 180.5 303.396L180.5 290.187C180.5 284.081 181.174 277.994 182.51 272.035L187 252L187.154 252.297C189.035 229.729 207.947 212 231 212C241.653 212 251.421 215.786 259.034 222.085L259 222L269.292 225.36C278.688 228.429 287.462 233.151 295.198 239.305L300.412 243.453C302.415 245.046 301.631 248.255 299.119 248.745L288.664 250.785C286.263 251.254 284.027 252.343 282.179 253.944L274.788 260.346Z" fill="#8B8D4C"/>
<circle opacity="0.65" cx="210.5" cy="204.5" r="51.5" fill="#7C975A"/>
<path opacity="0.7" fill-rule="evenodd" clip-rule="evenodd" d="M159.171 156.286L159 156.5L151.989 146.254C144.063 134.67 131.464 127.136 117.508 125.635L100.523 123.809C97.8211 123.518 96.8665 120.073 99.0331 118.434L108.077 111.59C122.45 100.714 139.381 93.7212 157.24 91.2859C168.232 89.787 179.424 91.115 189.76 95.1443L202.046 99.9338C205.27 99.3211 208.598 99.0005 212 99.0005C234.427 99.0005 253.601 112.93 261.341 132.61L280.263 143.959C284.718 146.631 288.651 150.088 291.873 154.163C299.837 164.235 305.22 176.101 307.553 188.728L312.462 215.295C312.969 218.034 309.795 219.924 307.628 218.174L283.776 198.915C278.659 194.784 272.072 192.933 265.553 193.795L239.662 197.218C231.61 202.154 222.137 205 212 205C184.172 205 161.353 183.553 159.171 156.286Z" fill="#6DA068"/>
<circle opacity="0.75" cx="246.5" cy="115.5" r="42.5" fill="#5EAA76"/>
<path opacity="0.8" fill-rule="evenodd" clip-rule="evenodd" d="M308.885 113.943C303.916 124.047 293.52 131 281.5 131C264.655 131 251 117.345 251 100.5C251 83.6553 264.655 70 281.5 70C283.592 70 285.634 70.2106 287.608 70.6117L317.224 72.6643C325.731 73.2539 330.361 82.8795 325.512 89.8935L308.885 113.943Z" fill="#4FB484"/>
</svg>
