<?xml version="1.0" encoding="UTF-8"?><svg id="Layer_1" xmlns="http://www.w3.org/2000/svg" viewBox="0 0 64 64"><path d="M0,15.09C0,10.06,0,5.03,0,0h8.45c-.99,3.64.39,6.48,3.52,8.1,6.39,3.31,12.94,6.29,19.42,9.41,3.49,1.6,10.05,3.08,11,7.38.89,4.03-4.42,10.88-6.16,14.35-.19-.6-.39-1.21-.58-1.81.39-.61.78-1.23,1.17-1.84,5.61-6.88,3.48-11.93-3.59-15.66-3.96-2.09-8.03-3.94-12.19-5.61-3.24-1.3-9.19-4.88-12.73-4.54-7.01.68-5.42,12.93-4.14,18.37,1.75,7.43,7.32,9.74,12.15,14.69C3.32,38.82,2.85,26.22,0,15.09Z" style="fill:#7d7d7d; stroke-width:0px;"/><path d="M36.23,39.25c1.75-3.47,7.06-10.33,6.16-14.35-.95-4.3-7.51-5.78-11-7.38.6,0,1.21,0,1.81,0,.6.2,1.21.4,1.81.6,2.7.73,6.59,2.86,9.06.57,2.21-2.06,1.1-9.94,1.21-12.65C44.88,4.02,44.48,2.01,44.08,0c.6,0,1.21,0,1.81,0,.53,4.92-.08,13.75,2.38,18.17,2.91,5.24,10.42,4.97,15.74,5.98v3.62c-3.87-.93-12.1-4.48-16.06-3.13-4.27,1.46-6.91,8.61-9.04,12.15-2.42,4-8.08,10.13-6.87,15.28.99,4.21,6.85,8.8,9.64,11.93h-2.42c-2.33-2.56-7.18-10.27-10.55-11.13-4.09-1.05-8.87,5.55-11.79,8.11.51-.61.99-1.25,1.54-1.83,6.7-7.02,6.71-7.3.27-14.48,1.21.6,2.41,1.21,3.62,1.81,4.02,4.95,5.95,4.95,8.45,0,.8-1.01,1.61-2.02,2.41-3.02,1.01-1.41,2.02-2.81,3.03-4.22Z" style="fill:#707070; stroke-width:0px;"/><path d="M64,32v9.06c-5.65,6.42-14.06,25.68-24.05,17.27-9.96-8.37-.4-18.57,4.72-26.94,2.78-3.48,6.45-4.45,10.53-3.17,3.03.95,5.87,2.5,8.8,3.78ZM52.71,30.26c-6.49,2.89-12.07,9.24-14.31,16.36-1.76,5.59,2.75,11.83,8.9,10.4,9.99-2.32,21.35-25.1,5.41-26.76Z" style="fill:#424242; stroke-width:0px;"/><path d="M64,32c-2.93-1.28-5.77-2.83-8.8-3.78-4.08-1.28-7.75-.31-10.53,3.17-8.66,6.35-14.77,21.19-4.84,28.84,10.13,7.81,19.22-10.65,24.17-17.36v2.42c-2.82,3.63-5.65,7.25-8.46,10.89-2.02,2.6-4.02,5.22-6.03,7.83h-7.85c-2.79-3.13-8.65-7.72-9.64-11.93-1.21-5.15,4.45-11.28,6.87-15.28,2.14-3.53,4.77-10.68,9.04-12.15,3.96-1.36,12.19,2.2,16.06,3.13v4.23Z" style="fill:#595959; stroke-width:0px;"/><path d="M20.53,0h17.51c.58,6.04.23,10.82-7.09,9.52C26.15,8.67,21.6,4.82,20.53,0Z" style="fill:#101010; stroke-width:0px;"/><path d="M0,60.98C0,54.74,0,48.5,0,42.26c3.66,2.7,10.8,6.01,9.93,11.32C9.26,57.75,4.01,61.24,0,60.98Z" style="fill:#0d0d0d; stroke-width:0px;"/><path d="M20.53,0c1.07,4.82,5.63,8.67,10.42,9.52C38.26,10.82,38.62,6.04,38.04,0h3.02c1.26,5.98,2.24,13.52-6.03,13.18C28.5,12.91,16.05,7.76,16.3,0h4.23Z" style="fill:#292929; stroke-width:0px;"/><path d="M16.3,0c-.25,7.76,12.2,12.91,18.72,13.18C43.3,13.52,42.32,5.98,41.06,0h1.81c1.15,4.07,2.76,11.91-1.18,15.26-3.13,2.66-6.78.33-10.16-.99C24.91,11.7,12.29,9.1,12.68,0h3.62Z" style="fill:#484848; stroke-width:0px;"/><path d="M18.72,44.68c6.43,7.18,6.43,7.45-.27,14.48-.55.58-1.03,1.22-1.54,1.83-1.01,1.01-2.01,2.01-3.02,3.02h-1.81c4.46-6.21,12.62-11.5,4.6-18.28-3.46-2.92-7.94-4.27-10.88-7.85C3.01,34.48,1.69,29.94,0,25.96,0,22.34,0,18.72,0,15.09c2.85,11.12,3.32,23.73,16.31,27.76.59.22,1.18.44,1.78.66.21.39.42.78.63,1.17Z" style="fill:#636363; stroke-width:0px;"/><path d="M0,60.98c4.01.25,9.26-3.24,9.93-7.4C10.8,48.28,3.66,44.96,0,42.26c0-1.41,0-2.82,0-4.23,3.76,3.04,12.29,7.45,13.67,12.48,1.52,5.55-5.54,10.2-8.84,13.48H0v-3.02Z" style="fill:#1c1c1c; stroke-width:0px;"/><path d="M0,25.96c1.69,3.97,3.01,8.52,5.79,11.9,2.94,3.58,7.42,4.93,10.88,7.85,8.03,6.78-.14,12.07-4.6,18.28h-3.62c4.82-5.06,12.35-10.83,5.81-17.36-2.62-2.61-6.27-4.1-8.94-6.73C3.36,37.97,2.2,34.62,0,33.21c0-2.42,0-4.83,0-7.25Z" style="fill:#484848; stroke-width:0px;"/><path d="M0,33.21c2.2,1.41,3.36,4.77,5.32,6.7,2.67,2.63,6.32,4.11,8.94,6.73,6.55,6.54-.99,12.3-5.81,17.36h-3.62c3.3-3.29,10.36-7.93,8.84-13.48-1.37-5.03-9.91-9.44-13.67-12.48,0-1.61,0-3.22,0-4.83Z" style="fill:#2d2d2d; stroke-width:0px;"/><path d="M12.68,0c-.38,9.1,12.23,11.7,18.85,14.27,3.38,1.31,7.03,3.64,10.16.99C45.63,11.91,44.02,4.07,42.87,0,43.27,0,43.67,0,44.08,0c.4,2.01.81,4.02,1.21,6.04-.02,9-.76,12.58-10.27,12.08-.6-.2-1.21-.4-1.81-.6C25.82,13.47,10.68,10.21,10.26,0h2.42Z" style="fill:#5e5e5e; stroke-width:0px;"/><path d="M53.74,0c3.42,0,6.84,0,10.26,0v7.25c-7.48,3.96-8.14-.32-10.26-7.25Z" style="fill:#f1f1f1; stroke-width:0px;"/><path d="M48.91,0c.6,0,1.21,0,1.81,0,.58,2.31,1.12,4.64,1.75,6.94,1.9,7,4.74,8.55,11.54,6.34v4.83c-7.38,1.66-11.2-.55-13.09-7.86C50.04,6.89,49.56,3.42,48.91,0Z" style="fill:#bdbdbd; stroke-width:0px;"/><path d="M64,13.28c-6.79,2.21-9.63.66-11.54-6.34C51.84,4.64,51.3,2.31,50.72,0c1.01,0,2.01,0,3.02,0,2.13,6.93,2.78,11.2,10.26,7.25v6.04Z" style="fill:#d8d8d8; stroke-width:0px;"/><path d="M64,42.87c-4.95,6.71-14.04,25.17-24.17,17.36-9.93-7.65-3.82-22.48,4.84-28.84-5.13,8.37-14.68,18.57-4.72,26.94,10,8.4,18.41-10.85,24.05-17.27v1.81Z" style="fill:#555; stroke-width:0px;"/><path d="M19.92,64h-3.62c2.68-2.22,6.49-7.04,10.1-7.58,4.62-.69,7.71,4.68,10.43,7.58h-3.62c-3.89-4.65-9.02-4.65-13.28,0Z" style="fill:#959595; stroke-width:0px;"/><path d="M48.91,0c.66,3.42,1.13,6.89,2,10.25,1.9,7.32,5.71,9.53,13.09,7.86v3.02c-7.47,1.37-13.88-1.3-14.86-10.32-.35-3.24-1.34-6.4-2.04-9.6-.2-.4-.4-.81-.6-1.21.81,0,1.61,0,2.42,0Z" style="fill:#a3a3a3; stroke-width:0px;"/><path d="M36.83,64c-2.71-2.9-5.8-8.27-10.43-7.58-3.61.54-7.43,5.36-10.1,7.58h-2.42c1.01-1.01,2.01-2.01,3.02-3.02,2.92-2.56,7.71-9.16,11.79-8.11,3.36.86,8.22,8.58,10.55,11.13h-2.42Z" style="fill:#767676; stroke-width:0px;"/><path d="M49.51,64c2.01-2.61,4.01-5.23,6.03-7.83,2.82-3.63,5.64-7.26,8.46-10.89v4.23c-3.42,4.83-6.84,9.66-10.26,14.49h-4.23Z" style="fill:#7a7a7a; stroke-width:0px;"/><path d="M46.49,0c.2.4.4.81.6,1.21.62,4.65.32,12.18,2.74,16.35,2.85,4.93,9.17,4.59,14.17,5.38v1.21c-5.32-1.02-12.83-.74-15.74-5.98C45.81,13.75,46.42,4.92,45.89,0c.2,0,.4,0,.6,0Z" style="fill:#8c8c8c; stroke-width:0px;"/><path d="M10.26,0c.41,10.21,15.55,13.47,22.94,17.51-.6,0-1.21,0-1.81,0-6.48-3.12-13.03-6.1-19.42-9.41C8.84,6.48,7.46,3.64,8.45,0h1.81Z" style="fill:#686868; stroke-width:0px;"/><path d="M53.74,64c3.42-4.83,6.84-9.66,10.26-14.49v3.62c-2.42,3.62-4.83,7.25-7.25,10.87h-3.02Z" style="fill:#9f9f9f; stroke-width:0px;"/><path d="M64,22.94c-5-.79-11.32-.45-14.17-5.38-2.41-4.17-2.11-11.7-2.74-16.35.7,3.2,1.69,6.37,2.04,9.6.98,9.01,7.39,11.69,14.86,10.32v1.81Z" style="fill:#8f8f8f; stroke-width:0px;"/><path d="M19.92,64c4.26-4.65,9.4-4.65,13.28,0h-13.28Z" style="fill:#afafaf; stroke-width:0px;"/><path d="M56.75,64c2.42-3.62,4.83-7.25,7.25-10.87v4.23c-1.41,2.21-2.82,4.43-4.23,6.64h-3.02Z" style="fill:#bdbdbd; stroke-width:0px;"/><path d="M59.77,64c1.41-2.21,2.82-4.43,4.23-6.64v6.64h-4.23Z" style="fill:#d5d5d5; stroke-width:0px;"/><path d="M18.09,43.51c-.59-.22-1.18-.44-1.78-.66-4.83-4.96-10.4-7.26-12.15-14.69-1.28-5.44-2.87-17.69,4.14-18.37,3.53-.34,9.49,3.24,12.73,4.54,4.16,1.67,8.23,3.52,12.19,5.61,7.07,3.74,9.21,8.78,3.59,15.66,2.66-10.49-.29-13.01-10.01-17.32-6.09-2.7-18.71-10.95-21.9-1.19-2.28,6.97,1.12,16.19,6.63,20.61,7.59,6.1,15.42,8.1,22.88,1.55-2.57,5.09-6.7,6.8-11.88,4.93-.84-.3-1.74-.47-2.61-.7-.61.01-1.22.02-1.83.03Z" style="fill:#939393; stroke-width:0px;"/><path d="M34.41,39.24c-7.46,6.55-15.28,4.55-22.88-1.55-5.51-4.42-8.9-13.64-6.63-20.61,3.19-9.76,15.81-1.51,21.9,1.19,9.72,4.31,12.67,6.83,10.01,17.32-.39.61-.78,1.23-1.17,1.84-.41.6-.83,1.2-1.24,1.8ZM21.75,18.1c-4.34-6.5-14.53-5.59-15.98,2.16-1.49,7.98,2.5,14.79,9.37,18.67,7.44,4.2,15.19,5.5,19.84-3.09,5.28-9.75-2-12.81-9.63-16.52-1.2-.41-2.41-.81-3.61-1.22Z" style="fill:#9d9d9d; stroke-width:0px;"/><path d="M34.41,39.24c.41-.6.82-1.2,1.24-1.8.19.6.39,1.21.58,1.81-1.01,1.41-2.02,2.81-3.03,4.22-4.42,3.41-8.85,3.87-13.28,0,.87.23,1.76.39,2.61.7,5.18,1.87,9.32.16,11.88-4.93Z" style="fill:#878787; stroke-width:0px;"/><path d="M35.02,18.11c9.5.51,10.25-3.07,10.27-12.08-.1,2.71,1,10.6-1.21,12.65-2.47,2.29-6.36.15-9.06-.57Z" style="fill:#686868; stroke-width:0px;"/><path d="M19.92,43.47c4.43,3.86,8.85,3.4,13.28,0-.8,1.01-1.61,2.02-2.41,3.02-2.82,2.17-5.63,1.39-8.45,0-1.21-.6-2.41-1.21-3.62-1.81-.21-.39-.42-.78-.63-1.17.61-.01,1.22-.02,1.83-.03Z" style="fill:#7d7d7d; stroke-width:0px;"/><path d="M22.34,46.49c2.82,1.38,5.64,2.17,8.45,0-2.5,4.95-4.43,4.95-8.45,0Z" style="fill:#767676; stroke-width:0px;"/><path d="M52.71,30.26c15.94,1.66,4.58,24.44-5.41,26.76-6.15,1.43-10.66-4.81-8.9-10.4,2.24-7.12,7.82-13.46,14.31-16.36ZM41.66,46.6c.14,12.93,14.13,2.69,14.89-5,1.3-13.1-13.98-3.23-14.89,5Z" style="fill:#272727; stroke-width:0px;"/><path d="M25.36,19.32c7.62,3.71,14.91,6.77,9.63,16.52-4.65,8.59-12.4,7.29-19.84,3.09-6.87-3.88-10.86-10.69-9.37-18.67,1.45-7.76,11.64-8.67,15.98-2.16-.61-.2-1.22-.39-1.83-.59-3.07-2.28-6.56-3.35-10.1-1.81-2.58,1.12-3.21,3.89-3.18,6.64-1,9.66,9.09,19.85,19.08,18.88,4.66-.46,8.28-4.54,9.27-9.04,1.59-7.18-4.39-9.61-9.63-12.86Z" style="fill:#acacac; stroke-width:0px;"/><path d="M19.92,17.51c.61.2,1.22.39,1.83.59,1.2.41,2.41.81,3.61,1.22,5.24,3.25,11.22,5.68,9.63,12.86-.99,4.5-4.61,8.58-9.27,9.04-9.99.97-20.07-9.22-19.08-18.88,3.1-7.16,6.22-6.66,13.28-4.83ZM33.79,29.85c.26-8.71-25-18.88-25.94-5.83-1.04,14.36,26.13,23.17,25.94,5.83Z" style="fill:#b9b9b9; stroke-width:0px;"/><path d="M41.66,46.6c.91-8.23,16.2-18.1,14.89-5-.76,7.69-14.76,17.93-14.89,5Z" style="fill:#111; stroke-width:0px;"/><path d="M19.92,17.51c-7.06-1.83-10.19-2.34-13.28,4.83-.03-2.75.6-5.52,3.18-6.64,3.54-1.53,7.03-.47,10.1,1.81Z" style="fill:#b1b1b1; stroke-width:0px;"/><path d="M33.79,29.85c.19,17.34-26.98,8.53-25.94-5.83.94-13.05,26.2-2.88,25.94,5.83ZM23.81,38.06c5.74-.28,9.47-5.6,6.91-10.79-2.19-4.42-9.59-7.47-14.28-7.57-5.72-.12-8.54,4.6-6.06,10.13,2.31,5.16,8.59,6.66,13.43,8.23Z" style="fill:#c7c7c7; stroke-width:0px;"/><path d="M23.81,38.06c-4.84-1.57-11.12-3.07-13.43-8.23-2.48-5.53.34-10.24,6.06-10.13,4.68.1,12.09,3.15,14.28,7.57,2.57,5.19-1.17,10.5-6.91,10.79ZM23.29,35.06c3.34-2.31,5.76-3.63,3.14-7.88-1.72-2.77-5.7-4.53-8.91-4.13-3.72.46-5.43,2.61-3.92,6.35,1.55,3.84,6.03,4.95,9.69,5.67Z" style="fill:#dadada; stroke-width:0px;"/><path d="M23.29,35.06c-3.66-.72-8.14-1.83-9.69-5.67-1.51-3.74.2-5.89,3.92-6.35,3.21-.4,7.19,1.36,8.91,4.13,2.63,4.25.2,5.58-3.14,7.88Z" style="fill:#f2f2f2; stroke-width:0px;"/></svg>